#!OML:ASF F:\VICON\USERDATA\INSTALL\rory3\rory3.ASF
:FULLY-SPECIFIED
:DEGREES
81
root 1.5034388738231703 17.864532623560564 53.85928800789637 -3.71278309481955 -1.076734420645273 -4.577617402647787
lfemur 0.9557839386553493 -1.2466908049748202 -14.700873224302565
ltibia 53.11198436804055
lfoot -4.769860847707534 -0.7472074386289673
ltoes -9.443390030093337
rfemur -16.51497868061163 1.9035907530257434 29.24603035698864
rtibia 30.23295780562527
rfoot -17.074661633025094 -12.871419320421555
rtoes -1.256049359996068
lowerback nan -1.2725561203327285 1.3094067950958714
upperback -0.1735297144743257 -1.2509113999500283 2.5618571982526945
thorax -6.057151811895496 -0.5947314451130308 3.1713214863070895
lowerneck -16.964226424742495 -3.292000335073007 -1.7032812110954223
upperneck 21.681406432781316 -4.287795892472069 1.1028835588750863
head 9.73026082745704 -2.0357679530378188 0.1353944074565115
lclavicle -2.5736646112652044e-15 -2.7657208376938016e-15
lhumerus -30.38467977668258 1.253919955534382 82.84858537496376
lradius 21.49379983249002
lwrist 10.90261814209069
lhand -29.853842846694036 18.217976222780997
lfingers nan
lthumb -3.0323097041025195 48.35259242623144
rclavicle -2.525941342068936e-15 -2.7256623888598563e-15
rhumerus -34.305560758297766 -23.98374926792997 -75.22149319488139
rradius 31.976047172271496
rwrist 0.9501728416870456
rhand -17.57151042682836 nan
rfingers nan
rthumb 8.698681826700723 -7.4841276924155276
82
root 1.466807900736593 17.858227584220227 52.84802686771673 -3.6986568956344765 -0.8738857245105272 -6.144910253473307
lfemur -3.8253087225348725 -0.6036676249565627 -12.224407941342042
ltibia 58.172445160390346
lfoot -4.794288614076231 0.10826517771930488
ltoes -10.972716439883989
rfemur -14.212859675934421 2.3153389726523317 30.598617101281405
rtibia 30.494817947144558
rfoot -17.65382169399936 -13.342525793223263
rtoes -2.301137064112189
lowerback nan -0.9799382414670322 2.5013588461234852
upperback -0.15342535973976829 -0.5117370429119985 2.7575115881373518
thorax -6.188306416444885 -0.26730918954421157 2.4578323698316424
lowerneck -17.073014022378157 -3.3946988093389057 -1.53488723568177
upperneck 21.468854650230455 -4.480983284536029 1.113987592433035
head 9.654072985480557 -2.1075644628444925 0.08895336193160672
lclavicle -2.5749681595974187e-15 -2.768497711642599e-15
lhumerus -31.400612401046544 2.1197196056289407 82.94812184765962
lradius 21.62353385871427
lwrist 11.158296752445684
lhand -29.94805307998135 18.17688554026001
lfingers nan
lthumb -3.125835284982378 48.33003371214789
rclavicle -2.5276560101235874e-15 -2.73100073574676e-15
rhumerus -33.854294983369265 -23.899703727553167 -74.80785021267864
rradius 32.04075359817775
rwrist 1.4568609715994612
rhand -17.526924231020406 nan
rfingers nan
rthumb 8.743565482515145 -7.243926835444663
83
root 1.4382366631655379 17.864259930448277 52.97880229757742 -3.5966801042329513 -0.2826273705760188 -7.381391002531947
lfemur -9.025675602637595 -0.29276145620625305 -10.839079433432435
ltibia 61.78882859015141
lfoot -5.262042825207956 -0.03861065946477371
ltoes -11.327261482198601
rfemur -12.396539871991473 2.259891836243038 31.23604083599324
rtibia 30.674050838278482
rfoot -17.44286860297297 -13.294349464474067
rtoes -3.3666563039182487
lowerback nan -0.7209424774160401 3.5753994918925587
upperback -0.16955739284929003 0.12985019951378018 2.840206188776617
thorax -6.286009662543363 0.04832844358429225 1.763602514785002
lowerneck -17.13145485870268 -3.5090416296374123 -1.3984850668870545
upperneck 21.278574470022146 -4.690588745482185 1.1444673774546161
head 9.587816004822542 -2.18341931471454 0.05174680460063602
lclavicle -2.5748122755053625e-15 -2.771212542971396e-15
lhumerus -32.35899009983306 2.9819305502199276 82.98248671556232
lradius 21.996106354378114
lwrist 11.393160168687192
lhand -29.987077174297575 18.190320322176998
lfingers nan
lthumb -3.1823304943733155 48.311719010350004
rclavicle -2.5291360014401005e-15 -2.7385210918637864e-15
rhumerus -33.274787628069994 -23.687306130843982 -74.41146602639688
rradius 32.12157057084518
rwrist 2.2146035495337495
rhand -17.491846977299783 nan
rfingers nan
rthumb 8.762734353774514 -7.0316384520448
84
root 1.435328442704742 17.87664020802375 53.80522929032372 -3.5957693487902174 0.326002121906131 -7.171504062208708
lfemur -13.408465506455919 -0.34787546312010287 -11.370865031986622
ltibia 62.96853792915137
lfoot -6.019067689353637 0.041722983440494854
ltoes -12.265750268552534
rfemur -9.69617651714766 1.8918414396478143 31.032925632064277
rtibia 30.272182128122978
rfoot -16.215357157839705 -12.720258221945024
rtoes -4.069501501114281
lowerback nan -0.5100998829983174 3.7761108098608176
upperback -0.1974838669243543 0.4681852341598318 2.7135013379310156
thorax -6.301290254322159 0.2247807922250693 1.2701316382775352
lowerneck -17.09434566375751 -3.6202667510135 -1.3228927235111942
upperneck 21.16234744414579 -4.888492003487708 1.18843123929837
head 9.551096918207351 -2.252785742146378 0.02760578440959735
lclavicle -2.575137999312788e-15 -2.774180263639429e-15
lhumerus -33.14878320502851 3.7891326267900323 82.96357118526798
lradius 22.5356294200771
lwrist 11.580340301229821
lhand -30.001328968768053 18.19504346071643
lfingers nan
lthumb -3.1976764154993473 48.294268214119995
rclavicle -2.5277126233184027e-15 -2.7443671247199877e-15
rhumerus -32.624213184060885 -23.33747061211733 -74.10377688490205
rradius 32.22924418362778
rwrist 3.0273258512789276
rhand -17.462430586288445 nan
rfingers nan
rthumb 8.808684489716287 -6.804601332657624
85
root 1.4590031016382963 17.886465497059483 53.9974017579341 -3.8365702395191437 0.8319639883064813 -6.112518164868156
lfemur -16.264253326706395 -0.6906882597060662 -12.991114155743741
ltibia 61.58230669478769
lfoot -6.61318290659739 0.39148290394945073
ltoes -12.908318813633386
rfemur -7.950976361253125 1.2457153696072742 29.89824427267452
rtibia 30.035612243316088
rfoot -14.043765754501965 -11.781053686188411
rtoes -4.118855073387972
lowerback nan -0.32826051344664653 3.388582398999536
upperback -0.21833337692310256 0.6132163324372513 2.479454679565479
thorax -6.233305984584109 0.2989833231617491 0.898001780524533
lowerneck -16.942443559686858 -3.715755444194906 -1.3175541321180941
upperneck 21.153403330064105 -5.056527120340197 1.2376807868258
head 9.554505843148114 -2.310616678034588 0.014050056110019526
lclavicle -2.5753641311074315e-15 -2.7764153505374583e-15
lhumerus -33.686991205865674 4.429074149656968 82.9003535858851
lradius 23.15400722498575
lwrist 11.677529967937044
lhand -29.976864827716906 18.206233108953633
lfingers nan
lthumb -3.189625864958649 48.27072083413829
rclavicle -2.5264177328238418e-15 -2.7485438132997957e-15
rhumerus -31.960489435796852 -22.902367077062536 -73.97130365506975
rradius 32.35338737871267
rwrist 3.3838074659122372
rhand -17.47976260253607 nan
rfingers nan
rthumb 8.761032749917199 -6.914618707641851
86
root 1.4709958034838926 17.89033576079359 53.1566622605902 -3.968380548299381 1.3211120404490224 -6.044884393945788
lfemur -18.15651951252833 -1.1691399368072202 -13.84080921420312
ltibia 58.34840853639094
lfoot -6.042698803288147 1.1894921184358211
ltoes -14.299681736571682
rfemur -6.082875297830093 1.0813712559988224 29.898823624617666
rtibia 29.837652143200685
rfoot -11.055035791577927 -10.69325075823986
rtoes -3.3586164085076
lowerback nan -0.13573808201972812 3.6004111407260924
upperback -0.2806219655671932 0.8642000996224546 2.297608164510949
thorax -6.164655576414576 0.42028302738347834 0.4130557358192629
lowerneck -16.726318892871365 -3.7905443148484097 -1.366504798113458
upperneck 21.24687643042311 -5.192182881557177 1.2899383689125037
head 9.592669525266865 -2.357589795095435 0.008880192719909807
lclavicle -2.573306742337132e-15 -2.7768142088007274e-15
lhumerus -33.96126356689651 4.77096315901211 82.80456208418813
lradius 23.786073017793214
lwrist 11.635547986340526
lhand -29.946609987329474 18.20356428792749
lfingers nan
lthumb -3.155797492394391 48.283730978537484
rclavicle -2.527033270446235e-15 -2.7526796792167353e-15
rhumerus -31.267263568857835 -22.42275482928695 -74.0119904407469
rradius 32.46308477267844
rwrist 2.8796758844996253
rhand -17.472326617284992 nan
rfingers nan
rthumb 8.769894044005307 -7.002895630480084
87
root 1.471470721486372 17.899109627519643 52.885039872537185 -3.8576156592583466 1.7476504990075938 -6.373163070887411
lfemur -19.305842215050106 -1.6494570488654783 -14.252714214031098
ltibia 53.77125145418142
lfoot -6.366972672120751 1.3311767781156703
ltoes -14.91072256156358
rfemur -5.499887844246327 1.2421721424226744 30.051475493990978
rtibia 30.44913863482265
rfoot -7.97470631089598 -9.98619375614438
rtoes -1.736396907687526
lowerback nan 0.016377001618271908 4.017170872393803
upperback -0.36689656777857266 1.0914315741688916 2.1552565781211075
thorax -6.120541269101515 0.5267175178627876 -0.09443754215116917
lowerneck -16.517641304174088 -3.847334956226833 -1.4340044631335114
upperneck 21.404884825536186 -5.300115359797586 1.3490396016449826
head 9.651662483605657 -2.39504367137901 0.012513998021284611
lclavicle -2.5714594376378928e-15 -2.7775295396610668e-15
lhumerus -34.01729718789459 4.808553473823114 82.6767987770646
lradius 24.419690179979398
lwrist 11.469187028954906
lhand -29.902952559789078 18.2128117994593
lfingers nan
lthumb -3.1198310255914405 48.31998388578311
rclavicle -2.530017180464146e-15 -2.7590260351819237e-15
rhumerus -30.61573837499252 -21.938342425382285 -74.20281166150781
rradius 32.541495543911765
rwrist 1.8858160533938098
rhand -17.487961162353816 nan
rfingers nan
rthumb 8.736718793265796 -7.232351429139808
